<mxfile host="app.diagrams.net" modified="2023-06-21T07:07:57.490Z" agent="Mozilla/5.0 (Windows NT 10.0; Win64; x64) AppleWebKit/537.36 (KHTML, like Gecko) Chrome/114.0.0.0 Safari/537.36 Edg/114.0.1823.55" version="21.5.0" etag="oJ8uzjByfCSfJCB4s2iP" type="github">
  <diagram name="Page-1" id="cxdKcM810h04aqOszu3q">
    <mxGraphModel>
      <root>
        <mxCell id="0" />
        <mxCell id="1" parent="0" />
      </root>
    </mxGraphModel>
  </diagram>
</mxfile>
